<?xml version="1.0" standalone="no"?>
<svg id="visual" viewBox="0 0 900 600" width="900" height="600" xmlns="http://www.w3.org/2000/svg" xmlns:xlink="http://www.w3.org/1999/xlink" version="1.1"><defs><linearGradient id="sw-gradient-0" x1="0" x2="0" y1="1" y2="0"><stop stop-color="rgba(143, 0, 255, 0.8)" offset="15.35%"/><stop stop-color="rgba(255, 105, 180, 0.8)" offset="115.35%"/></linearGradient></defs><path d="M425 0L397.2 25C369.3 50 313.7 100 303.8 150C294 200 330 250 361.3 300C392.7 350 419.3 400 411.7 450C404 500 362 550 341 575L320 600L0 600L0 575C0 550 0 500 0 450C0 400 0 350 0 300C0 250 0 200 0 150C0 100 0 50 0 25L0 0Z" fill="url(#sw-gradient-0)" stroke-linecap="round" stroke-linejoin="miter"></path></svg>