<?xml version="1.0" standalone="no"?>
<svg xmlns:xlink="http://www.w3.org/1999/xlink" id="wave" style="transform:rotate(0deg); transition: 0.3s" viewBox="0 0 1440 490" version="1.1" xmlns="http://www.w3.org/2000/svg"><defs><linearGradient id="sw-gradient-0" x1="0" x2="0" y1="1" y2="0"><stop stop-color="rgba(145, 0, 255, 1)" offset="0%"/><stop stop-color="rgba(255, 105, 180, 1)" offset="100%"/></linearGradient></defs><path style="transform:translate(0, 0px); opacity:1" fill="url(#sw-gradient-0)" d="M0,0L18.5,24.5C36.9,49,74,98,111,130.7C147.7,163,185,180,222,155.2C258.5,131,295,65,332,73.5C369.2,82,406,163,443,236.8C480,310,517,376,554,359.3C590.8,343,628,245,665,212.3C701.5,180,738,212,775,253.2C812.3,294,849,343,886,334.8C923.1,327,960,261,997,269.5C1033.8,278,1071,359,1108,326.7C1144.6,294,1182,147,1218,73.5C1255.4,0,1292,0,1329,65.3C1366.2,131,1403,261,1440,318.5C1476.9,376,1514,359,1551,302.2C1587.7,245,1625,147,1662,155.2C1698.5,163,1735,278,1772,334.8C1809.2,392,1846,392,1883,326.7C1920,261,1957,131,1994,81.7C2030.8,33,2068,65,2105,65.3C2141.5,65,2178,33,2215,49C2252.3,65,2289,131,2326,163.3C2363.1,196,2400,196,2437,163.3C2473.8,131,2511,65,2548,32.7C2584.6,0,2622,0,2640,0L2658.5,0L2658.5,490L2640,490C2621.5,490,2585,490,2548,490C2510.8,490,2474,490,2437,490C2400,490,2363,490,2326,490C2289.2,490,2252,490,2215,490C2178.5,490,2142,490,2105,490C2067.7,490,2031,490,1994,490C1956.9,490,1920,490,1883,490C1846.2,490,1809,490,1772,490C1735.4,490,1698,490,1662,490C1624.6,490,1588,490,1551,490C1513.8,490,1477,490,1440,490C1403.1,490,1366,490,1329,490C1292.3,490,1255,490,1218,490C1181.5,490,1145,490,1108,490C1070.8,490,1034,490,997,490C960,490,923,490,886,490C849.2,490,812,490,775,490C738.5,490,702,490,665,490C627.7,490,591,490,554,490C516.9,490,480,490,443,490C406.2,490,369,490,332,490C295.4,490,258,490,222,490C184.6,490,148,490,111,490C73.8,490,37,490,18,490L0,490Z"/></svg>