<?xml version="1.0" standalone="no"?>
<!-- background: linear-gradient(180deg, rgba(143, 0, 255, 0.8) 15.35%, rgba(255, 105, 180, 0.8) 115.35%); -->

<svg xmlns:xlink="http://www.w3.org/1999/xlink" id="wave" style="transform:rotate(0deg); transition: 0.3s" viewBox="0 0 2000 490" version="1.1" xmlns="http://www.w3.org/2000/svg"><defs><linearGradient id="sw-gradient-0" x1="0" x2="0" y1="1" y2="0"><stop stop-color="rgba(143, 0, 255, 0.8)" offset="15.35%"/><stop stop-color="rgba(255, 105, 180, 0.8)" offset="115.35%"/></linearGradient></defs><path style="transform:translate(180, 0px); opacity:1" fill="url(#sw-gradient-0)" d="M0,343L24,285.8C48,229,96,114,144,130.7C192,147,240,294,288,310.3C336,327,384,212,432,212.3C480,212,528,327,576,375.7C624,425,672,408,720,367.5C768,327,816,261,864,269.5C912,278,960,359,1008,392C1056,425,1104,408,1152,367.5C1200,327,1248,261,1296,204.2C1344,147,1392,98,1440,73.5C1488,49,1536,49,1584,49C1632,49,1680,49,1728,81.7C1776,114,1824,180,1872,245C1920,310,1968,376,2016,334.8C2064,294,2112,147,2160,81.7C2208,16,2256,33,2304,73.5C2352,114,2400,180,2448,179.7C2496,180,2544,114,2592,138.8C2640,163,2688,278,2736,343C2784,408,2832,425,2880,416.5C2928,408,2976,376,3024,375.7C3072,376,3120,408,3168,416.5C3216,425,3264,408,3312,383.8C3360,359,3408,327,3432,310.3L3456,294L3456,490L3432,490C3408,490,3360,490,3312,490C3264,490,3216,490,3168,490C3120,490,3072,490,3024,490C2976,490,2928,490,2880,490C2832,490,2784,490,2736,490C2688,490,2640,490,2592,490C2544,490,2496,490,2448,490C2400,490,2352,490,2304,490C2256,490,2208,490,2160,490C2112,490,2064,490,2016,490C1968,490,1920,490,1872,490C1824,490,1776,490,1728,490C1680,490,1632,490,1584,490C1536,490,1488,490,1440,490C1392,490,1344,490,1296,490C1248,490,1200,490,1152,490C1104,490,1056,490,1008,490C960,490,912,490,864,490C816,490,768,490,720,490C672,490,624,490,576,490C528,490,480,490,432,490C384,490,336,490,288,490C240,490,192,490,144,490C96,490,48,490,24,490L0,490Z"/></svg>