<svg xmlns="http://www.w3.org/2000/svg" width="512" height="512" style="overflow: visible;" viewBox="0 0 512 512" data-svgdocument="" id="_xuB03lxu_pFkqY3TrZaLZ" class="fl-svgdocument" x="0" y="0" xmlns:xlink="http://www.w3.org/1999/xlink" overflow="hidden"><defs id="_lq_9E_WSOGMhBlgyOKojd" transform="matrix(0.42976070518565535, 0, 0, 0.42976070518565535, 35.53996080348776, 143.91842444737551)" data-uid="o_en9aihehm_4"><linearGradient id="linearGradientSke8mc8dc7do" x1="0" y1="0.5" x2="1" y2="0.5" data-uid="o_en9aihehm_5"><stop id="_v3xWpPGHzrWy753UoldDg" offset="0%" stop-color="rgb(23, 97, 160)" stop-opacity="0.76" data-uid="o_en9aihehm_6"></stop><stop id="_h0O01LeiP2QelkScSme0o" offset="100%" stop-color="rgb(23, 97, 160)" stop-opacity="0.76" data-uid="o_en9aihehm_7"></stop></linearGradient><linearGradient id="linearGradientSke8mc8dc7du" x1="0" y1="0.5" x2="1" y2="0.5" data-uid="o_en9aihehm_8"><stop id="_RT6hP8pcmFpTIr2SgWWCe" offset="0%" stop-color="rgb(23, 97, 160)" stop-opacity="0.760784" data-uid="o_en9aihehm_9"></stop><stop id="_-WCVsEuIGaEJJpLo3rRei" offset="100%" stop-color="rgb(23, 97, 160)" stop-opacity="0.760784" data-uid="o_en9aihehm_10"></stop></linearGradient></defs><g id="_Sm20efTAWOCW8ECRktL5j" transform="matrix(1.0793625690167001, 0, 0, 1.0747238247256738, -36.0295584770078, -46.585204155320326)" data-uid="o_en9aihehm_11"><path id="_8fTOfc3YQxOARYQesC8NM" d="M26.323,94.479c-0.122,0.305-0.035,0.061-0.062,0.118l-0.002-0.043l-0.003-0.084l-0.007-0.168l-0.015-0.337l-0.027-0.673  l-0.055-1.347l-0.111-2.692l-0.227-5.385l-0.015-0.337l-0.008-0.163l-0.012-0.162c-0.018-0.217-0.044-0.433-0.08-0.646  c-0.071-0.429-0.181-0.85-0.325-1.258c-0.29-0.817-0.727-1.581-1.276-2.254c-0.274-0.337-0.576-0.651-0.899-0.943  c-0.081-0.072-0.163-0.145-0.247-0.214l-0.126-0.104l-0.132-0.106c-0.174-0.141-0.351-0.286-0.522-0.431  c-0.693-0.582-1.368-1.186-2.021-1.812c-2.614-2.502-4.897-5.353-6.767-8.454c-1.871-3.102-3.318-6.459-4.296-9.948  C8.11,53.546,7.607,49.924,7.584,46.3c-0.023-3.625,0.433-7.255,1.366-10.761c0.933-3.505,2.342-6.885,4.172-10.018  c1.831-3.134,4.084-6.019,6.673-8.562s5.515-4.744,8.678-6.523c3.163-1.781,6.563-3.141,10.084-4.029  c3.52-0.89,7.158-1.307,10.787-1.252c3.63,0.053,7.253,0.579,10.746,1.576c1.746,0.498,3.461,1.111,5.125,1.838  s3.279,1.563,4.832,2.504c3.107,1.879,5.965,4.171,8.475,6.795c0.312,0.328,0.621,0.661,0.924,1l0.225,0.254l0.225,0.257  c0.152,0.177,0.297,0.352,0.439,0.532c0.574,0.718,1.098,1.479,1.555,2.278s0.85,1.637,1.172,2.497  c0.324,0.861,0.582,1.743,0.791,2.632c0.416,1.78,0.641,3.58,0.859,5.364c0.215,1.786,0.424,3.563,0.715,5.324l-0.039-0.12  l3.426,6.771l1.715,3.384l0.861,1.69c0.293,0.585,0.543,1.194,0.727,1.831c0.182,0.636,0.299,1.3,0.301,1.978  c0.006,0.677-0.109,1.37-0.383,2.01c-0.271,0.64-0.705,1.212-1.229,1.655l-1.443,1.23l-5.773,4.923l0.131-0.271l-0.301,6.508  l-0.16,3.254l-0.086,1.628l-0.047,0.816c-0.01,0.132-0.02,0.283-0.037,0.425c-0.018,0.143-0.039,0.284-0.066,0.425  c-0.215,1.125-0.705,2.182-1.395,3.086c-0.688,0.904-1.588,1.65-2.611,2.15c-1.021,0.503-2.154,0.756-3.279,0.792  c-0.141,0.005-0.281,0.006-0.422,0.005l-0.408-0.007l-0.812-0.013c-0.543-0.008-1.088-0.017-1.631-0.03  c-2.178-0.052-4.361-0.174-6.527-0.462c-2.168-0.285-4.316-0.733-6.408-1.376c-2.092-0.641-4.125-1.476-6.061-2.495  c-1.934-1.02-3.77-2.221-5.49-3.565c-0.095-0.074-0.111-0.212-0.037-0.307c0.068-0.088,0.193-0.108,0.286-0.051l0.019,0.012  c1.837,1.152,3.734,2.172,5.699,2.998c1.959,0.835,3.979,1.479,6.025,1.947c2.051,0.46,4.125,0.754,6.217,0.884  c1.045,0.063,2.094,0.104,3.146,0.107c1.055,0.007,2.111-0.017,3.18-0.056l3.137-0.12c0.818-0.057,1.566-0.265,2.211-0.612  c0.646-0.348,1.195-0.841,1.617-1.439c0.211-0.298,0.389-0.622,0.525-0.956s0.232-0.68,0.281-1.007  c0.014-0.082,0.021-0.162,0.027-0.241l0.006-0.059c0-0.019,0.002-0.042,0.002-0.05v-0.028l0.002-0.026v-0.012  c0,0.002,0.002-0.024,0,0.002l0.002-0.096l0.004-0.793l0.002-1.617l0.002-3.252c0.006-2.17,0.008-4.343,0.02-6.512  c0.004-0.793,0.344-1.505,0.885-2.003l0.16-0.146l2.801-2.561l2.809-2.554l1.406-1.272l0.027-0.026l0.021-0.021  c0.014-0.014,0.025-0.027,0.037-0.041c0.021-0.026,0.041-0.052,0.057-0.075c0.031-0.049,0.055-0.094,0.074-0.148  s0.037-0.122,0.051-0.21c0.012-0.088,0.02-0.196,0.016-0.326c-0.008-0.258-0.062-0.595-0.178-0.963  c-0.055-0.185-0.125-0.377-0.207-0.573c-0.041-0.099-0.086-0.198-0.133-0.298l-0.072-0.15l-0.074-0.146l-0.904-1.659  c-0.607-1.113-1.211-2.225-1.811-3.34l-1.797-3.344l-1.785-3.35c-0.16-0.299-0.268-0.612-0.324-0.93l-0.023-0.133  c-0.336-1.872-0.572-3.728-0.809-5.488s-0.471-3.422-0.836-4.903c-0.184-0.742-0.398-1.439-0.654-2.097  c-0.258-0.658-0.557-1.277-0.904-1.874c-0.348-0.596-0.748-1.167-1.199-1.723l-0.172-0.207l-0.166-0.195l-0.199-0.224l-0.203-0.227  c-0.273-0.301-0.553-0.597-0.836-0.889c-1.133-1.166-2.336-2.264-3.609-3.273s-2.613-1.935-4.002-2.774  c-1.393-0.838-2.838-1.583-4.326-2.229c-1.488-0.647-3.016-1.201-4.576-1.648c-3.121-0.894-6.357-1.388-9.615-1.45  c-1.629-0.034-3.26,0.031-4.879,0.207c-0.809,0.087-1.614,0.201-2.416,0.341c-0.803,0.138-1.6,0.303-2.392,0.493  c-1.583,0.38-3.14,0.871-4.661,1.455c-1.522,0.584-3.007,1.27-4.441,2.052c-1.435,0.781-2.823,1.652-4.147,2.616  s-2.59,2.011-3.783,3.138c-2.384,2.257-4.485,4.825-6.217,7.633c-0.868,1.402-1.643,2.864-2.319,4.373  c-0.679,1.508-1.258,3.063-1.73,4.653c-0.476,1.59-0.847,3.215-1.107,4.861c-0.263,1.646-0.42,3.313-0.466,4.989  c-0.049,1.676,0.01,3.357,0.182,5.03c0.169,1.673,0.449,3.339,0.84,4.982c0.388,1.646,0.891,3.267,1.494,4.855  c0.604,1.589,1.319,3.14,2.127,4.647c0.811,1.506,1.725,2.963,2.734,4.356c1.006,1.397,2.103,2.737,3.29,4  c0.592,0.633,1.21,1.243,1.842,1.841c0.16,0.151,0.31,0.29,0.48,0.445l0.031,0.028c0.013,0.012-0.006-0.002,0.02,0.019l0.071,0.063  l0.142,0.129c0.094,0.087,0.186,0.176,0.276,0.266c0.364,0.36,0.702,0.749,1.008,1.164c0.611,0.828,1.089,1.763,1.383,2.745  c0.146,0.492,0.248,0.994,0.305,1.499c0.028,0.251,0.047,0.504,0.054,0.756L27,83.301c0,0.065,0.001,0.135-0.001,0.187l-0.006,0.335  c-0.018,0.9-0.031,1.801-0.055,2.701l-0.066,2.699c-0.022,0.899-0.053,1.8-0.079,2.7l-0.045,1.35l-0.023,0.676l-0.013,0.337  l-0.007,0.169l-0.003,0.085L26.7,94.581c-0.027,0.085,0.06-0.132-0.062,0.202c-0.084,0.086-0.223,0.089-0.309,0.005  C26.242,94.704,26.239,94.566,26.323,94.479z" fill="#238a91" transform="matrix(2.0347115993499756, 0, 0, 2.0347115993499756, 178.36978149414062, 134.2578582763672)" data-uid="o_en9aihehm_12"></path><path id="_BZ291CM7JAZwdxGxVoURi" fill="url(#linearGradientSke8mc8dc7do)" d="M72.197,53.889c-3.227,0-6.063,1.679-7.698,4.205l-9.349-3.487c0.012-0.169,0.025-0.337,0.025-0.509  c0-4.07-3.311-7.381-7.379-7.381c-0.465,0-0.918,0.048-1.359,0.131l-5.173-11.15c2.153-1.68,3.545-4.291,3.545-7.227  c0-5.059-4.114-9.174-9.171-9.174c-5.058,0-9.172,4.115-9.172,9.174c0,5.057,4.114,9.17,9.172,9.17c0.692,0,1.363-0.083,2.012-0.229  l5.206,11.22c-1.493,1.352-2.438,3.298-2.438,5.466c0,1.521,0.463,2.935,1.254,4.11l-4.876,5.266  c-0.905-0.396-1.902-0.62-2.951-0.62c-4.069,0-7.379,3.312-7.379,7.381c0,4.068,3.31,7.379,7.379,7.379s7.379-3.311,7.379-7.379  c0-1.567-0.495-3.021-1.332-4.217l4.833-5.22c0.937,0.432,1.975,0.679,3.072,0.679c2.475,0,4.664-1.229,6.003-3.104l9.315,3.476  c-0.053,0.399-0.09,0.804-0.09,1.217c0,5.057,4.114,9.17,9.172,9.17s9.172-4.113,9.172-9.17  C81.369,58.005,77.255,53.889,72.197,53.889z M30.466,28.471c0-2.853,2.32-5.174,5.172-5.174s5.171,2.321,5.171,5.174  c0,2.851-2.32,5.17-5.171,5.17S30.466,31.322,30.466,28.471z M33.845,73.613c-1.863,0-3.379-1.516-3.379-3.379  c0-1.864,1.516-3.381,3.379-3.381s3.379,1.517,3.379,3.381C37.224,72.098,35.708,73.613,33.845,73.613z M47.796,57.477  c-1.863,0-3.379-1.516-3.379-3.379c0-1.864,1.516-3.381,3.379-3.381s3.379,1.517,3.379,3.381  C51.176,55.961,49.66,57.477,47.796,57.477z M72.197,68.234c-2.852,0-5.172-2.319-5.172-5.17c0-2.854,2.32-5.176,5.172-5.176  s5.172,2.322,5.172,5.176C77.369,65.915,75.049,68.234,72.197,68.234z" transform="matrix(2.6202967166900635, 0, 0, 2.6202967166900635, 98.96145629882812, 91.80341339111328)" data-uid="o_en9aihehm_13"></path></g><path text="Druid" text-anchor="middle" font-size="100" letter-spacing="0" side="left" offset="0.5" dx="0" dy="0" space="preserve" href="" font-family="Michroma" font-scale="contain" transform="matrix(0.4015254410542771, 0, 0, 0.4015254410542771, 255.37110930751868, 335.23130036794385)" x="0" y="0" fill="#238a91" data-fl-textpath="" id="_oShUpoU7PddDRKi6XRFx2" data-uid="o_en9aihehm_14" d="M-158.6181640625-7.81L-111.7881640625-7.81Q-105.5881640625-7.81 -101.2981640625-8.15Q-96.9981640625-8.5 -94.2181640625-9.55Q-91.4281640625-10.6 -89.9181640625-12.6Q-88.4081640625-14.6 -87.6981640625-17.9Q-86.9881640625-21.19 -86.8681640625-26Q-86.7381640625-30.81 -86.7381640625-37.5L-86.7381640625-37.5Q-86.7381640625-44.19 -86.8681640625-49Q-86.9881640625-53.81 -87.6981640625-57.1Q-88.4081640625-60.4 -89.9181640625-62.4Q-91.4281640625-64.4 -94.2181640625-65.45Q-96.9981640625-66.5 -101.2681640625-66.85Q-105.5381640625-67.19 -111.7881640625-67.19L-111.7881640625-67.19L-158.6181640625-67.19L-158.6181640625-7.81ZM-111.7881640625 0L-167.9881640625 0L-167.9881640625-75L-111.7881640625-75Q-103.1981640625-75 -97.3181640625-74Q-91.4281640625-73 -87.5981640625-70.95Q-83.7681640625-68.9 -81.6881640625-65.82Q-79.6181640625-62.74 -78.6581640625-58.57Q-77.7081640625-54.39 -77.5381640625-49.15Q-77.3681640625-43.9 -77.3681640625-37.5L-77.3681640625-37.5Q-77.3681640625-31.1 -77.5381640625-25.85Q-77.7081640625-20.61 -78.6581640625-16.43Q-79.6181640625-12.26 -81.6881640625-9.18Q-83.7681640625-6.1 -87.5981640625-4.05Q-91.4281640625-2 -97.3181640625-1Q-103.1981640625 0 -111.7881640625 0L-111.7881640625 0ZM-8.6181640625-37.94L-16.428164062500002-37.94Q-16.428164062500002-41.46 -16.9481640625-43.77Q-17.458164062500003-46.09 -19.358164062500002-47.49Q-21.2681640625-48.88 -24.998164062500003-49.44Q-28.738164062499997-50 -35.1781640625-50L-35.1781640625-50Q-41.4781640625-50 -45.4381640625-48.9Q-49.388164062499996-47.8 -51.638164062499996-45.8Q-53.878164062500005-43.8 -54.6881640625-41.02Q-55.4881640625-38.23 -55.4881640625-34.81L-55.4881640625-34.81L-55.4881640625 0L-64.8681640625 0L-64.8681640625-56.25L-55.4881640625-56.25L-55.4881640625-47.31Q-55.0081640625-48.83 -53.6881640625-50.66Q-52.3681640625-52.49 -49.6781640625-54.08Q-46.998164062499995-55.66 -42.7281640625-56.74Q-38.4481640625-57.81 -32.0581640625-57.81L-32.0581640625-57.81Q-24.7281640625-57.81 -20.138164062500003-56.52Q-15.5481640625-55.22 -12.988164062499997-52.71Q-10.428164062500002-50.2 -9.518164062499999-46.48Q-8.6181640625-42.77 -8.6181640625-37.94L-8.6181640625-37.94ZM-2.3181640625-56.25L 7.0518359375-56.25L 7.0518359375-25Q 7.0518359375-19.78  7.841835937500001-16.19Q 8.621835937499998-12.6  10.961835937499998-10.4Q 13.301835937500002-8.2  17.6018359375-7.23Q 21.9018359375-6.25  28.931835937499997-6.25L 28.931835937499997-6.25Q 36.5518359375-6.25  41.4018359375-7.37Q 46.2618359375-8.5  49.0518359375-10.55Q 51.8318359375-12.6  52.8818359375-15.48Q 53.9318359375-18.36  53.9318359375-21.88L 53.9318359375-21.88L 53.9318359375-56.25L 63.3018359375-56.25L 63.3018359375 0L 53.9318359375 0L 53.9318359375-9.38Q 53.2518359375-7.86  51.6318359375-6.03Q 50.0218359375-4.2  46.8018359375-2.64Q 43.5818359375-1.07  38.4718359375 0Q 33.3718359375 1.07  25.8018359375 1.07L 25.8018359375 1.07Q 19.5118359375 1.07  14.9918359375 0.32Q 10.4718359375-0.44  7.3218359374999995-1.93Q 4.171835937499999-3.42  2.2718359375000006-5.62Q 0.3618359375000004-7.81 -0.6581640625-10.72Q-1.6881640625000003-13.62 -2.0281640625-17.19Q-2.3681640625-20.75 -2.3681640625-25L-2.3681640625-25L-2.3181640625-56.25ZM 78.9356640625 0L 78.9356640625-56.25L 88.3056640625-56.25L 88.3056640625 0L 78.9356640625 0ZM 88.3056640625-75L 88.3056640625-65.63L 78.9356640625-65.63L 78.9356640625-75L 88.3056640625-75ZM 136.7406640625 1.07L 136.7406640625 1.07Q 127.3706640625 1.07  120.8206640625-0.29Q 114.2806640625-1.66  110.1806640625-4.98Q 106.0806640625-8.3  104.2206640625-13.92Q 102.3706640625-19.53  102.3706640625-28.03L 102.3706640625-28.03Q 102.3706640625-36.82  104.2206640625-42.58Q 106.0806640625-48.34  110.1806640625-51.71Q 114.2806640625-55.08  120.8206640625-56.45Q 127.3706640625-57.81  136.7406640625-57.81L 136.7406640625-57.81Q 143.3806640625-57.81  147.8806640625-57.13Q 152.3706640625-56.45  155.2206640625-55.42Q 158.0806640625-54.39  159.5706640625-53.2Q 161.0606640625-52  161.7406640625-50.98L 161.7406640625-50.98L 161.7406640625-75L 171.1206640625-75L 171.1206640625 0L 161.7406640625 0L 161.7406640625-8.35Q 161.7406640625-8.35  159.4006640625-5.57L 159.4006640625-5.57Q 157.35066406250002-3.56  154.8606640625-2.34Q 152.3706640625-1.12  147.8806640625-0.02Q 143.3806640625 1.07  136.7406640625 1.07ZM 136.7406640625-6.25L 136.7406640625-6.25Q 141.4306640625-6.25  145.0906640625-6.47Q 148.7506640625-6.69  151.5406640625-7.42Q 154.3206640625-8.15  156.2506640625-9.59Q 158.1806640625-11.04  159.4006640625-13.43Q 160.6206640625-15.82  161.1806640625-19.36Q 161.7406640625-22.9  161.7406640625-27.88L 161.7406640625-27.88Q 161.7406640625-33.06  161.1806640625-36.69Q 160.6206640625-40.33  159.4006640625-42.8Q 158.1806640625-45.26  156.2506640625-46.68Q 154.3206640625-48.1  151.5406640625-48.85Q 148.7506640625-49.61  145.0906640625-49.8Q 141.4306640625-50  136.7406640625-50L 136.7406640625-50Q 131.2706640625-50  127.2906640625-49.66Q 123.3106640625-49.32  120.5306640625-48.44Q 117.7506640625-47.56  116.0106640625-46Q 114.2806640625-44.43  113.3306640625-41.99Q 112.3806640625-39.55  112.0606640625-36.11Q 111.7406640625-32.67  111.7406640625-28.03L 111.7406640625-28.03Q 111.7406640625-23.44  112.0606640625-20.04Q 112.3806640625-16.65  113.3306640625-14.23Q 114.2806640625-11.82  116.0106640625-10.25Q 117.7506640625-8.69  120.5306640625-7.81Q 123.3106640625-6.93  127.2906640625-6.59Q 131.2706640625-6.25  136.7406640625-6.25Z"></path><path id="_CA9pi_GZX_qWydoV7u2m5" fill="url(#linearGradientSke8mc8dc7du)" transform="matrix(2.353713263720754, 0, 0, 0.46212178688240424, 48, 314.70247204856116)" data-type="rect" data-x="0" data-y="84.525" data-width="176.742" data-height="7.219" d="M0 84.525H176.742 V91.744 H0 Z" data-uid="o_en9aihehm_15"></path></svg>